<svg viewBox="0 0 63.74 35.4" xmlns="http://www.w3.org/2000/svg"><path d="m16.32 35.4c-1.04 0-1.89-.84-1.89-1.89 0-3.17.57-7.12 1.38-11.06-4.72-.87-11.56-2.95-14.42-6.91-1.42-1.98-1.77-4.25-.99-6.58.95-2.86 2.68-4.85 5.12-5.9 3.99-1.72 9.63-.85 17.24 2.67.9.42 1.33 1.47.97 2.39-.8 2.07-2.15 6.34-3.32 11.08a1.89 1.89 0 0 1 -.34 3.75c-.15 0-.32 0-.51-.02-.79 3.77-1.36 7.57-1.36 10.57 0 1.06-.84 1.9-1.88 1.9zm-6.26-29.42c-1.17 0-2.18.18-3.04.55-1.44.62-2.43 1.81-3.04 3.63-.39 1.18-.24 2.19.47 3.18 2.05 2.84 8.03 4.68 12.18 5.44.96-3.99 2.07-7.72 2.97-10.32-3.86-1.65-7.05-2.48-9.54-2.48zm16.76 26.47c-1.04 0-1.89-.84-1.89-1.89 0-2.7.5-9.16 1.03-11.28a1.877 1.877 0 0 1 2.29-1.37c1.01.25 1.63 1.28 1.37 2.29-.41 1.66-.91 7.77-.91 10.36 0 1.05-.85 1.89-1.89 1.89z"/><path d="m35.54 31.4c-.16 0-.32-.02-.49-.06a1.885 1.885 0 0 1 -1.34-2.31c.58-2.18.47-7.4.03-12.68-2.2-.28-4.12-.8-5.4-1.48a1.884 1.884 0 1 1 1.77-3.33c.77.41 1.91.73 3.25.95-.44-3.93-1.01-7.45-1.56-9.24-.15-.49-.09-1.02.16-1.47s.67-.78 1.17-.91c1.53-.4 9.42-2.23 14.35 1.03 2 1.32 3.26 3.35 3.63 5.85.37 2.48-.63 4.7-2.81 6.23-2.61 1.84-6.76 2.6-10.73 2.6h-.04c.43 5.42.5 10.79-.2 13.41-.19.85-.95 1.41-1.79 1.41zm1.68-18.59c3.38.05 6.97-.51 8.94-1.9 1.31-.93 1.36-1.87 1.25-2.6-.22-1.46-.86-2.52-1.98-3.26-2.42-1.6-6.54-1.43-9.5-.92.46 2.21.92 5.33 1.29 8.68z"/><path d="m47.96 34.83c-1.9 0-3.59-.68-4.87-1.99-1.86-1.89-2.59-4.9-1.96-8.05.5-2.51 2.2-4.39 4.8-5.28 2.98-1.03 6.66-.57 8.59 1.06.07.06.14.13.21.2.1.11.18.23.24.35.06.11.11.23.15.36.02.08.04.17.06.26.05.36.1.72.14 1.06.72 5.07 1.66 7.34 3 7.34 1.43 0 1.67-1.19 1.69-1.33a1.875 1.875 0 0 1 2.17-1.55c1.03.17 1.72 1.14 1.55 2.17-.26 1.55-1.72 4.48-5.41 4.48-1.89 0-3.23-.87-4.2-2.19-1 1.6-2.55 2.59-4.63 2.97-.54.09-1.04.14-1.53.14zm1.3-12.1c-.69 0-1.42.1-2.11.34-1.32.46-2.1 1.28-2.33 2.45-.38 1.93-.03 3.68.95 4.67.72.74 1.77 1.01 3.03.78.99-.18 3.53-.64 2.79-7.41l-.06-.43c-.56-.23-1.38-.4-2.27-.4z"/></svg>